<?xml version="1.0" standalone="no"?><!DOCTYPE svg PUBLIC "-//W3C//DTD SVG 1.1//EN" "http://www.w3.org/Graphics/SVG/1.1/DTD/svg11.dtd"><svg t="1619055918869" class="icon" viewBox="0 0 1024 1024" version="1.1" xmlns="http://www.w3.org/2000/svg" p-id="12121" xmlns:xlink="http://www.w3.org/1999/xlink" width="64" height="64"><defs><style type="text/css"></style></defs><path d="M649.6 387.2c60.8 67.2 83.2 147.2 67.2 233.6-9.6 44.8-25.6 89.6-48 131.2h25.6c57.6 0 105.6 51.2 105.6 112H227.2c0-60.8 48-112 105.6-112h195.2c44.8-48 70.4-99.2 76.8-150.4 9.6-48-3.2-92.8-38.4-134.4l-121.6 128 25.6 25.6-76.8 80L224 515.2l76.8-80 25.6 25.6 278.4-291.2 25.6 25.6 25.6-25.6c12.8-16 35.2-16 51.2 0l25.6 25.6c12.8 16 12.8 38.4 0 54.4l-28.8 28.8 25.6 25.6-80 83.2z" p-id="12122"></path></svg>