<?xml version="1.0" standalone="no"?><!DOCTYPE svg PUBLIC "-//W3C//DTD SVG 1.1//EN" "http://www.w3.org/Graphics/SVG/1.1/DTD/svg11.dtd"><svg t="1623393232980" class="icon" viewBox="0 0 1024 1024" version="1.1" xmlns="http://www.w3.org/2000/svg" p-id="11291" xmlns:xlink="http://www.w3.org/1999/xlink" width="64" height="64"><defs><style type="text/css"></style></defs><path d="M835.998697 63.542198a10.012028 10.012028 0 0 0-10.32209 0.599658c-1.040702 0.713244-104.847953 71.332628-173.440167 71.338768-4.019547 0-7.872295-0.251733-11.452843-0.74906-27.684526-3.845585-49.52802-13.289678-72.655764-23.287379-33.070186-14.297634-67.267033-29.081339-120.950699-29.081339-4.019547 0-8.15268 0.084934-12.286838 0.254803-84.232426 3.438309-157.249417 25.406646-178.760336 32.45825l-11.997242-12.938684a10.004865 10.004865 0 0 0-11.17041-2.438539l-44.13008 18.302855a10.004865 10.004865 0 0 0-5.856382 11.736299l212.212216 824.361147a10.001795 10.001795 0 0 0 9.688664 7.510044 10.007935 10.007935 0 0 0 7.002484-2.858094l51.025117-49.985438a10.001795 10.001795 0 0 0 2.784416-9.230222c-0.450255-2.118244-45.097104-212.319663-47.820122-259.618922-1.444908-25.099654 8.497535-50.903344 27.27725-70.79744 20.288069-21.490453 61.013609-47.106878 139.818419-47.109947 44.490284-0.001023 85.502349-5.78782 121.895211-17.199731 29.339212-9.199523 55.767118-22.054295 78.550007-38.20923 39.289841-27.858488 54.18611-55.920614 54.801117-57.101509a9.997702 9.997702 0 0 0 1.131777-4.621251V72.393797a10.009981 10.009981 0 0 0-5.343705-8.851599z" fill="" p-id="11292"></path></svg>