<?xml version="1.0" standalone="no"?><!DOCTYPE svg PUBLIC "-//W3C//DTD SVG 1.1//EN" "http://www.w3.org/Graphics/SVG/1.1/DTD/svg11.dtd"><svg t="1623393309858" class="icon" viewBox="0 0 1024 1024" version="1.1" xmlns="http://www.w3.org/2000/svg" p-id="16556" xmlns:xlink="http://www.w3.org/1999/xlink" width="64" height="64"><defs><style type="text/css"></style></defs><path d="M103.375415 66.690912l286.575878 0 204.697055 364.41264-245.63442 0L103.375415 66.690912M512.930185 469.538933c-135.710868 0-245.726517 108.811218-245.726517 243.037269 0 134.225027 110.015649 243.038292 245.726517 243.038292s245.725494-108.811218 245.725494-243.038292C758.655679 578.351174 648.641053 469.538933 512.930185 469.538933M592.46973 844.12733l-81.009012-59.374272-82.482573 57.144488 29.493731-98.123808-77.969792-63.575967 99.233072-1.276063 34.302247-96.42819 31.831986 97.330746 99.16451 3.982708-79.555917 61.427024L592.46973 844.12733M594.649372 66.690912l327.517335 0L635.589806 431.103552l-122.819257-234.265488L594.649372 66.690912 594.649372 66.690912z" p-id="16557"></path></svg>