<?xml version="1.0" standalone="no"?><!DOCTYPE svg PUBLIC "-//W3C//DTD SVG 1.1//EN" "http://www.w3.org/Graphics/SVG/1.1/DTD/svg11.dtd"><svg t="1619055905223" class="icon" viewBox="0 0 1024 1024" version="1.1" xmlns="http://www.w3.org/2000/svg" p-id="10805" xmlns:xlink="http://www.w3.org/1999/xlink" width="64" height="64"><defs><style type="text/css"></style></defs><path d="M780.86564102 825.67658119V217.44275328c-0.5974792-13.74202165-2.98739601-36.44623134-17.32689686-50.7857322-10.15714644-10.15714644-25.0941265-14.93698005-44.81094017-14.93698006-40.62858576 0-60.94287863 30.47143932-60.94287864 90.81683876v111.72861082c0 13.74202165-11.35210484 25.6916057-25.69160569 25.69160569h-472.0085698v417.6379624c0 69.90506667 44.81094017 126.66559089 114.71600684 126.66559088h11.94958404l529.36657322-0.59747919C794.01018348 901.55643988 780.86564102 867.50012535 780.86564102 825.67658119z m-143.99248774-103.96138119H304.67471681c-16.72941766 0-30.47143932-13.74202165-30.47143932-30.47143932s13.74202165-30.47143932 30.47143932-30.47143931h332.19843647c16.72941766 0 30.47143932 13.74202165 30.47143932 30.47143931s-13.74202165 30.47143932-30.47143932 30.47143932z m0-162.51434302H304.67471681c-16.72941766 0-30.47143932-13.74202165-30.47143932-30.47143932s13.74202165-30.47143932 30.47143932-30.47143931h332.19843647c16.72941766 0 30.47143932 13.74202165 30.47143932 30.47143931s-13.74202165 30.47143932-30.47143932 30.47143932zM832.24885243 825.67658119c0 22.70420969 5.97479202 76.4773379 59.74792022 76.4773379 22.10673049 0 35.84875214-8.96218803 44.81094017-20.31429288 5.97479202-9.55966723 10.75462564-20.31429287 13.14454244-31.66639772v-1.1949584c0-1.19495841 0.5974792-2.98739601 0.59747921-4.18235442 0.5974792-5.97479202 1.19495841-11.35210484 1.1949584-14.93698006V678.69669744c0-9.55966723-7.16975043-17.32689687-17.32689686-17.32689687h-102.16894358v164.30678062z" p-id="10806"></path><path d="M89.58220399 329.17136411h517.41698917V243.13435898c0-83.64708832 37.04371055-135.62777892 100.37650599-141.00509175-5.97479202-1.19495841-12.54706324-1.79243761-18.52185527-1.79243761H164.86458348c-50.78573219 0-92.60927635 38.23866894-92.60927635 85.43952593v130.2504661c0 5.97479202 7.16975043 13.14454244 17.32689686 13.14454246z" p-id="10807"></path></svg>
