<?xml version="1.0" standalone="no"?><!DOCTYPE svg PUBLIC "-//W3C//DTD SVG 1.1//EN" "http://www.w3.org/Graphics/SVG/1.1/DTD/svg11.dtd"><svg t="1619055734447" class="icon" viewBox="0 0 1024 1024" version="1.1" xmlns="http://www.w3.org/2000/svg" p-id="1932" xmlns:xlink="http://www.w3.org/1999/xlink" width="64" height="64"><defs><style type="text/css"></style></defs><path d="M803.64 170.4H692.57c0.53 3.08 0.74 6.26 0.74 9.44 0 31.51-25.67 57.18-57.18 57.18H406.34c-31.51 0-57.18-25.68-57.18-57.18 0-3.19 0.32-6.37 0.74-9.44H238.84c-26.21 0-47.42 21.11-47.42 47.1v659.75c0.1 26.1 21.32 47.1 47.42 47h564.7c26.2 0 47.42-21.11 47.42-47.1V217.61c0.1-26.21-21.11-47.21-47.32-47.21zM332.72 476.35c0-12.84 10.29-23.23 23.13-23.23h142.26c12.84 0.21 23.12 10.72 23.12 23.55 0 13.05-10.08 23.55-23.12 23.55H355.85c-12.73 0-23.13-10.92-23.13-23.55v-0.32z m259.6 118.08c13.05 0 23.55 10.5 23.55 23.55s-10.5 23.55-23.55 23.55H355.95c-12.73 0-23.12-10.93-23.12-23.55 0-12.84 10.29-23.34 23.12-23.55h236.37z m93.78 188.52H356.38c-13.05 0-23.55-10.93-23.55-23.55 0-13.05 10.82-23.55 23.55-23.55H686.2c13.05 0 23.55 10.92 23.55 23.55-0.1 12.94-10.92 23.55-23.65 23.55z m0-424.04H356.38c-13.05 0-23.55-10.92-23.55-23.55 0-13.05 10.82-23.55 23.55-23.55H686.2c13.05 0 23.55 10.92 23.55 23.55-0.1 12.95-10.92 23.55-23.65 23.55z" p-id="1933"></path><path d="M406.34 221.21h229.79c22.7 0 41.27-18.57 41.27-41.27 0-22.7-18.56-41.26-41.27-41.26h-18.46c0.1-0.75 0.1-1.49 0.1-2.12 0-26.42-43.18-47.74-96.54-47.74-53.36 0-96.54 21.32-96.54 47.74 0 0.74 0 1.49 0.1 2.12h-18.46c-22.7 0-41.26 18.57-41.26 41.26 0.01 22.6 18.58 41.27 41.27 41.27z" p-id="1934"></path></svg>