<?xml version="1.0" standalone="no"?><!DOCTYPE svg PUBLIC "-//W3C//DTD SVG 1.1//EN" "http://www.w3.org/Graphics/SVG/1.1/DTD/svg11.dtd"><svg t="1617875359296" class="icon" viewBox="0 0 1024 1024" version="1.1" xmlns="http://www.w3.org/2000/svg" p-id="2196" xmlns:xlink="http://www.w3.org/1999/xlink" width="200" height="200"><defs><style type="text/css"></style></defs><path d="M924.96494 660.872053h-40.825995l-9.568998-280.679959C874.569947 177.976124 717.32597 0.00015 513.196 0.00015a370.304946 370.304946 0 0 0-370.623946 367.433946v293.437957H95.686061A95.685986 95.685986 0 0 0 0.000075 756.558039a95.685986 95.685986 0 0 0 95.685986 95.685986h243.679964v2.232a169.363975 169.363975 0 0 0 339.047951 0v-2.232h246.550964a95.685986 95.685986 0 0 0 95.685985-95.685986 95.685986 95.685986 0 0 0-95.685985-95.685986z m-310.659955 191.371972a105.573985 105.573985 0 0 1-211.466969 0v-2.233h210.827969s0.638 1.914 0.638 2.552z m310.659955-65.06699H95.686061a31.894995 31.894995 0 1 1 0-63.789991h78.781988a31.894995 31.894995 0 0 0 31.894996-31.895995V378.917094a314.169954 314.169954 0 0 1 240.171965-308.109954c200.939971-45.609993 364.244947 120.564982 364.244946 309.384954l9.567999 280.679959v31.894996a31.894995 31.894995 0 0 0 31.895995 31.894995h72.72099a31.894995 31.894995 0 1 1 0 63.789991z" p-id="2197" fill="#ffffff"></path></svg>