<?xml version="1.0" standalone="no"?><!DOCTYPE svg PUBLIC "-//W3C//DTD SVG 1.1//EN" "http://www.w3.org/Graphics/SVG/1.1/DTD/svg11.dtd"><svg t="1619055952945" class="icon" viewBox="0 0 1024 1024" version="1.1" xmlns="http://www.w3.org/2000/svg" p-id="12914" xmlns:xlink="http://www.w3.org/1999/xlink" width="64" height="64"><defs><style type="text/css"></style></defs><path d="M512 512c142.222222 0 256-113.777778 256-256S654.222222 0 512 0 256 113.777778 256 256s113.777778 256 256 256z m176.253968 62.47619h-34.031746c-45.714286 22.857143-96.507937 34.031746-147.809524 34.031747s-102.603175-11.174603-147.809523-34.031747h-28.444445C181.84127 574.47619 62.47619 694.349206 62.47619 842.15873v85.333333c0 51.301587 45.714286 96.507937 96.507937 96.507937h706.031746c51.301587 0 96.507937-45.714286 96.507937-96.507937v-85.333333c0-147.809524-124.952381-267.68254-273.269842-267.68254z" p-id="12915"></path></svg>